<svg width="26" height="22" viewBox="0 0 26 22" fill="none" xmlns="http://www.w3.org/2000/svg">
<path d="M15.4205 7.66563C15.2033 7.66563 15.0267 7.48935 15.0267 7.27188V6.60273C15.0267 6.38554 15.203 6.20898 15.4205 6.20898C15.6377 6.20898 15.8142 6.38526 15.8142 6.60273V7.27188C15.8142 7.48935 15.6377 7.66563 15.4205 7.66563Z" fill="#103E13"/>
<path d="M13.765 7.66563C13.5478 7.66563 13.3712 7.48935 13.3712 7.27188V6.60273C13.3712 6.38554 13.5475 6.20898 13.765 6.20898C13.9822 6.20898 14.1587 6.38526 14.1587 6.60273V7.27188C14.1584 7.48935 13.9824 7.66563 13.765 7.66563Z" fill="#103E13"/>
<path d="M12.1097 7.66563C11.8925 7.66563 11.7159 7.48935 11.7159 7.27188V6.60273C11.7159 6.38554 11.8922 6.20898 12.1097 6.20898C12.3269 6.20898 12.5034 6.38526 12.5034 6.60273V7.27188C12.5034 7.48935 12.3272 7.66563 12.1097 7.66563Z" fill="#103E13"/>
<path d="M15.4205 10.4017C15.2033 10.4017 15.0267 10.2254 15.0267 10.0079V9.33906C15.0267 9.12187 15.203 8.94531 15.4205 8.94531C15.6377 8.94531 15.8142 9.12159 15.8142 9.33906V10.0079C15.8142 10.2254 15.6377 10.4017 15.4205 10.4017Z" fill="#103E13"/>
<path d="M13.765 10.4017C13.5478 10.4017 13.3712 10.2254 13.3712 10.0079V9.33906C13.3712 9.12187 13.5475 8.94531 13.765 8.94531C13.9822 8.94531 14.1587 9.12159 14.1587 9.33906V10.0079C14.1584 10.2254 13.9824 10.4017 13.765 10.4017Z" fill="#103E13"/>
<path d="M12.1097 10.4017C11.8925 10.4017 11.7159 10.2254 11.7159 10.0079V9.33906C11.7159 9.12187 11.8922 8.94531 12.1097 8.94531C12.3269 8.94531 12.5034 9.12159 12.5034 9.33906V10.0079C12.5034 10.2254 12.3272 10.4017 12.1097 10.4017Z" fill="#103E13"/>
<path d="M15.4205 13.1383C15.2033 13.1383 15.0267 12.962 15.0267 12.7445V12.0754C15.0267 11.8582 15.203 11.6816 15.4205 11.6816C15.6377 11.6816 15.8142 11.8579 15.8142 12.0754V12.7445C15.8142 12.962 15.6377 13.1383 15.4205 13.1383Z" fill="#103E13"/>
<path d="M13.765 13.1383C13.5478 13.1383 13.3712 12.962 13.3712 12.7445V12.0754C13.3712 11.8582 13.5475 11.6816 13.765 11.6816C13.9822 11.6816 14.1587 11.8579 14.1587 12.0754V12.7445C14.1584 12.962 13.9824 13.1383 13.765 13.1383Z" fill="#103E13"/>
<path d="M12.1097 13.1383C11.8925 13.1383 11.7159 12.962 11.7159 12.7445V12.0754C11.7159 11.8582 11.8922 11.6816 12.1097 11.6816C12.3269 11.6816 12.5034 11.8579 12.5034 12.0754V12.7445C12.5034 12.962 12.3272 13.1383 12.1097 13.1383Z" fill="#103E13"/>
<path d="M15.4205 15.8741C15.2033 15.8741 15.0267 15.6978 15.0267 15.4804V14.8112C15.0267 14.594 15.203 14.4175 15.4205 14.4175C15.6377 14.4175 15.8142 14.5938 15.8142 14.8112V15.4804C15.8142 15.6978 15.6377 15.8741 15.4205 15.8741Z" fill="#103E13"/>
<path d="M13.765 15.8741C13.5478 15.8741 13.3712 15.6978 13.3712 15.4804V14.8112C13.3712 14.594 13.5475 14.4175 13.765 14.4175C13.9822 14.4175 14.1587 14.5938 14.1587 14.8112V15.4804C14.1584 15.6978 13.9824 15.8741 13.765 15.8741Z" fill="#103E13"/>
<path d="M12.1097 15.8741C11.8925 15.8741 11.7159 15.6978 11.7159 15.4804V14.8112C11.7159 14.594 11.8922 14.4175 12.1097 14.4175C12.3269 14.4175 12.5034 14.5938 12.5034 14.8112V15.4804C12.5034 15.6978 12.3272 15.8741 12.1097 15.8741Z" fill="#103E13"/>
<path d="M15.4205 18.6107C15.2033 18.6107 15.0267 18.4344 15.0267 18.2169V17.548C15.0267 17.3309 15.203 17.1543 15.4205 17.1543C15.6377 17.1543 15.8142 17.3306 15.8142 17.548V18.2169C15.8142 18.4341 15.6377 18.6107 15.4205 18.6107Z" fill="#103E13"/>
<path d="M13.765 18.6107C13.5478 18.6107 13.3712 18.4344 13.3712 18.2169V17.548C13.3712 17.3309 13.5475 17.1543 13.765 17.1543C13.9822 17.1543 14.1587 17.3306 14.1587 17.548V18.2169C14.1584 18.4341 13.9824 18.6107 13.765 18.6107Z" fill="#103E13"/>
<path d="M12.1097 18.6107C11.8925 18.6107 11.7159 18.4344 11.7159 18.2169L11.7162 17.548C11.7162 17.3309 11.8925 17.1543 12.11 17.1543C12.3272 17.1543 12.5037 17.3306 12.5037 17.548V18.2169C12.5034 18.4341 12.3272 18.6107 12.1097 18.6107Z" fill="#103E13"/>
<path d="M0.861536 21.3337C0.861536 21.5509 1.03782 21.7275 1.25528 21.7275H25.2333C25.4505 21.7275 25.6271 21.5512 25.6271 21.3337C25.6271 21.1165 25.4508 20.94 25.2333 20.94H24.5054V9.63492C24.5054 9.41773 24.3292 9.24117 24.1117 9.24117L17.683 9.24144V1.09108C17.683 0.95324 17.6111 0.825836 17.4935 0.75444C17.3763 0.682777 17.2297 0.678384 17.1077 0.741809L9.79878 4.54721C9.66835 4.61503 9.58708 4.74958 9.58708 4.89648V12.0157H2.51359C2.2964 12.0157 2.11984 12.1919 2.11984 12.4094V20.9401H1.25441C1.03722 20.9398 0.861206 21.1161 0.861206 21.3335L0.861536 21.3337ZM17.6831 15.2049H23.7183V20.9403L17.6831 20.94V15.2049ZM17.6831 12.4687H23.7183V14.4177L17.6831 14.4174V12.4687ZM17.6831 10.0285H23.7183V11.6818H17.6831V10.0285ZM10.3742 5.13556L16.8954 1.7401V20.9397H10.3742V5.13556ZM4.85378 17.7952C4.85378 16.978 5.50123 16.313 6.29722 16.313C7.09322 16.313 7.74095 16.9777 7.74095 17.7952V20.9402H4.85378V17.7952ZM2.90732 12.803H9.58696V20.94H8.52843V17.795C8.52843 16.5438 7.52789 15.5256 6.29722 15.5256C5.06711 15.5256 4.06657 16.5435 4.06657 17.795V20.94H2.90732V12.803Z" fill="#103E13"/>
</svg>
