<svg width="24" height="22" viewBox="0 0 24 22" fill="none" xmlns="http://www.w3.org/2000/svg">
<path d="M15.1282 10.8909C14.9605 10.8909 14.8049 10.8448 14.6667 10.7707V10.7727C14.6667 11.0364 14.5642 11.284 14.3782 11.4695C14.1923 11.6555 13.9448 11.7579 13.6814 11.7579C13.5113 11.7579 13.3537 11.7107 13.214 11.6346C13.1999 11.8759 13.1035 12.1013 12.9315 12.2735C12.7455 12.4595 12.498 12.562 12.2345 12.562C11.7108 12.562 11.2856 12.1504 11.2549 11.6345C11.0929 11.722 10.9097 11.768 10.7208 11.7558C10.2057 11.722 9.80228 11.277 9.80228 10.7423V6.3107L9.29766 7.18493C9.10546 7.51931 8.74567 7.72692 8.35831 7.72692C8.16955 7.72692 7.98309 7.67739 7.81795 7.58277C7.61231 7.46355 7.46521 7.27217 7.40404 7.04322C7.34254 6.81412 7.37435 6.57453 7.49325 6.36919C7.49341 6.36919 9.14432 3.5103 9.24503 3.33469C9.25701 3.30828 9.29112 3.2317 9.32015 3.16643C9.34786 3.10411 9.37164 3.04016 9.39443 2.97587C9.8923 1.57031 11.1251 0.697208 12.6118 0.697208C14.5425 0.697208 16.1132 2.40042 16.1132 4.49398L16.1134 9.90547C16.1134 10.1688 16.011 10.4163 15.8252 10.6025C15.6393 10.7884 15.3918 10.8909 15.1281 10.8909L15.1282 10.8909ZM12.6118 1.22075C11.3343 1.22075 10.3161 1.94234 9.88791 3.15096C9.86052 3.22771 9.83199 3.30446 9.79869 3.37924C9.7021 3.59588 9.7021 3.59587 9.67488 3.62703L9.67127 3.62391C9.53647 3.87827 9.136 4.57178 7.94657 6.63122C7.89769 6.71567 7.88474 6.81374 7.90967 6.90754C7.93492 7.00135 7.99544 7.08039 8.07924 7.12877C8.33933 7.27816 8.69553 7.18174 8.84377 6.92345L9.8374 5.20315C9.89677 5.10065 10.0168 5.05031 10.1319 5.08147C10.2464 5.11214 10.3259 5.21594 10.3259 5.33434V10.7425C10.3259 10.9976 10.5185 11.2179 10.7551 11.2335C10.8916 11.2407 11.0188 11.1949 11.1144 11.0995C11.2013 11.0126 11.2492 10.8968 11.2492 10.773V7.23598C11.2492 7.09134 11.3665 6.97408 11.5111 6.97408C11.6558 6.97408 11.773 7.09117 11.773 7.23598L11.7729 11.5769C11.7729 11.8314 11.98 12.0386 12.2345 12.0386C12.3581 12.0386 12.4742 11.9907 12.5613 11.9038C12.6482 11.8167 12.6961 11.7006 12.6961 11.5769V7.23597C12.6961 7.09133 12.8132 6.97408 12.958 6.97408C13.1027 6.97408 13.2199 7.09117 13.2199 7.23597L13.2198 10.7323V10.773C13.2198 11.0273 13.4269 11.2344 13.6816 11.2344C13.8051 11.2344 13.9208 11.1864 14.0084 11.0991C14.0953 11.0124 14.1432 10.8966 14.1432 10.7728V7.23579C14.1432 7.09115 14.2603 6.97389 14.4051 6.97389C14.5497 6.97389 14.667 7.09098 14.667 7.23579L14.6667 9.9056C14.6667 10.1603 14.8738 10.3674 15.1281 10.3674C15.2519 10.3674 15.3677 10.3194 15.4546 10.2326C15.5419 10.1454 15.5896 10.0292 15.5896 9.9056L15.5898 4.49411C15.5898 2.68938 14.2539 1.22081 12.6118 1.22081L12.6118 1.22075Z" fill="#103E13"/>
<path d="M4.83847 14.6523L8.63881 12.3725C9.097 12.0973 9.68655 12.2142 9.98043 12.6388C10.0877 12.7934 10.1425 12.9737 10.151 13.1572C10.2927 13.0832 10.4468 13.0431 10.6038 13.0431C10.6841 13.0431 10.7648 13.0531 10.8445 13.0729C11.0998 13.1367 11.315 13.2963 11.4503 13.5219C11.5858 13.7479 11.6253 14.0127 11.5615 14.2678C11.5026 14.5037 11.3591 14.7024 11.1595 14.8386C11.2991 14.921 11.4195 15.0333 11.5051 15.1763C11.6405 15.4023 11.6801 15.667 11.6164 15.9223C11.5526 16.1773 11.3931 16.3925 11.1671 16.5281L11.1658 16.5289C11.3029 16.6111 11.4211 16.7223 11.5057 16.8631C11.6414 17.0891 11.6809 17.354 11.6171 17.6093C11.5531 17.8645 11.3936 18.0796 11.1679 18.2151L6.52764 20.9989C5.66159 21.5182 4.66041 21.6975 3.70892 21.5032C2.74892 21.307 1.95386 20.7552 1.47044 19.9493C0.7054 18.6743 0.820053 17.1679 1.76907 16.0181C1.81253 15.9656 1.85533 15.9122 1.8942 15.8567C1.93536 15.7982 1.98341 15.7293 1.99981 15.7057C2.09804 15.5302 3.70092 12.6423 3.70075 12.6426C3.86262 12.3506 4.166 12.1852 4.47889 12.1854C4.62485 12.1854 4.77293 12.2213 4.90954 12.2971C5.07452 12.3892 5.2131 12.5236 5.31001 12.6854C5.50927 13.0175 5.51632 13.4331 5.32871 13.7694L4.83847 14.6523ZM4.86126 12.9546C4.81042 12.8699 4.74056 12.8023 4.65512 12.7544C4.4785 12.6567 4.25613 12.7203 4.15889 12.8963C3.01194 14.9626 2.62096 15.6667 2.47008 15.9173L2.47352 15.9182C2.4609 15.9601 2.4609 15.9601 2.32282 16.1574C2.27591 16.2242 2.22491 16.2883 2.17293 16.3514C1.35688 17.3401 1.26213 18.5844 1.91923 19.68C2.32626 20.3586 2.99897 20.8238 3.8135 20.9901C4.6369 21.1575 5.50475 21.0017 6.25799 20.5498L10.8987 17.7659C11.0046 17.7024 11.0794 17.6016 11.1093 17.482C11.1391 17.3626 11.1206 17.2385 11.0569 17.1325C10.9261 16.9144 10.6419 16.8428 10.4238 16.9741L8.13444 18.3476C8.01047 18.422 7.84942 18.382 7.77514 18.2579C7.70069 18.1339 7.74086 17.973 7.86484 17.8986L10.1543 16.5251L10.8979 16.0791C11.0038 16.0154 11.0788 15.9146 11.1086 15.7954C11.1385 15.6758 11.1199 15.5515 11.0563 15.4457C10.9253 15.2274 10.6411 15.1564 10.4231 15.2873L7.39008 17.1068C7.26578 17.1814 7.10522 17.1411 7.03077 17.0171C6.95632 16.8931 6.99666 16.7323 7.12048 16.6578L10.8429 14.4247C10.9489 14.3611 11.0237 14.2604 11.0535 14.1409C11.0834 14.0215 11.0648 13.8973 11.0014 13.7914C10.9379 13.6856 10.837 13.6108 10.7175 13.581C10.5973 13.5511 10.4736 13.5697 10.368 13.633L9.67893 14.0464C9.67876 14.0464 9.67876 14.0466 9.6786 14.0466H9.67844L6.64557 15.8661C6.52126 15.9409 6.36055 15.9005 6.28626 15.7764C6.21181 15.6524 6.25215 15.4915 6.37596 15.4171L9.409 13.5976C9.51494 13.5339 9.58988 13.4331 9.61973 13.3139C9.65253 13.183 9.6276 13.0492 9.54986 12.937C9.41506 12.742 9.12677 12.6902 8.90817 12.8215L4.27083 15.6035C4.16932 15.6642 4.03927 15.6494 3.95416 15.5673C3.86889 15.485 3.8497 15.3556 3.90709 15.2521L4.87138 13.5147C4.96814 13.3411 4.96436 13.1266 4.86121 12.9547L4.86126 12.9546Z" fill="#103E13"/>
<path d="M22.9983 19.949C22.515 20.755 21.7201 21.3067 20.76 21.5028C19.8083 21.6968 18.8075 21.5179 17.9412 20.9985L13.3005 18.2146C13.0747 18.0792 12.915 17.864 12.851 17.6085C12.7876 17.3535 12.8273 17.0886 12.9626 16.863C13.047 16.7219 13.1654 16.6107 13.3027 16.5286L13.3014 16.5278C13.0755 16.3923 12.9158 16.1772 12.8522 15.922C12.7882 15.6668 12.8279 15.4018 12.9634 15.1758C13.0506 15.0307 13.1702 14.9172 13.3066 14.8367C13.1085 14.7004 12.9658 14.5025 12.9071 14.2676C12.8432 14.0123 12.8829 13.7474 13.0183 13.5218C13.1536 13.2959 13.3689 13.1364 13.6241 13.0726C13.7038 13.0526 13.7847 13.0427 13.8647 13.0427C14.0218 13.0429 14.176 13.0828 14.3176 13.1569C14.3263 12.9734 14.3809 12.7932 14.4882 12.6385C14.7822 12.2143 15.3713 12.0968 15.8302 12.3722L19.6304 14.6517L19.1405 13.7694C18.9526 13.4325 18.9595 13.017 19.1587 12.6847C19.2558 12.523 19.3945 12.3887 19.5603 12.2957C19.6966 12.2203 19.8442 12.1846 19.9898 12.1846C20.3026 12.1847 20.6063 12.3497 20.768 12.6418C21.3314 13.6571 22.3948 15.5718 22.4695 15.7055C22.4854 15.7286 22.5335 15.7975 22.5747 15.856C22.6138 15.9116 22.6562 15.9648 22.6999 16.0176C23.6488 17.1678 23.7633 18.6741 22.9983 19.949L22.9983 19.949ZM22.2959 16.3513C22.2438 16.2882 22.1926 16.2237 22.146 16.1573C22.0043 15.9563 22.0007 15.951 21.9901 15.8984C21.8244 15.6244 21.4204 14.8969 20.3097 12.8958C20.2122 12.7202 19.9909 12.6561 19.8146 12.7535C19.7278 12.802 19.6581 12.8697 19.6073 12.9545C19.5043 13.1262 19.5004 13.3407 19.5976 13.5149L20.5616 15.2518C20.6191 15.3554 20.5999 15.4846 20.5148 15.5669C20.4299 15.6494 20.3 15.6639 20.198 15.6032L15.5606 12.8212C15.342 12.6902 15.0539 12.7415 14.9188 12.9367C14.841 13.0488 14.8163 13.1826 14.8487 13.3133C14.8786 13.4327 14.9535 13.5334 15.0596 13.5971C15.06 13.5972 15.0601 13.5975 15.0605 13.5977L18.0925 15.4167C18.2165 15.4912 18.2567 15.6519 18.1822 15.776C18.1078 15.8998 17.9472 15.9403 17.8229 15.8657L14.1005 13.6327C13.9948 13.5694 13.8705 13.5507 13.7512 13.5807C13.6314 13.6105 13.5308 13.6853 13.4673 13.7914C13.4037 13.8972 13.3853 14.0213 13.4148 14.1407C13.4447 14.2601 13.5196 14.3609 13.6255 14.4246L14.3499 14.859L17.3478 16.6577C17.4718 16.7321 17.512 16.8928 17.4375 17.017C17.3631 17.1408 17.2025 17.1811 17.0782 17.1067L14.0455 15.2872C13.8274 15.156 13.5434 15.2272 13.4122 15.4456C13.3486 15.5515 13.3302 15.6757 13.3597 15.7951C13.3896 15.9145 13.4645 16.0151 13.5706 16.0789L14.3141 16.525L16.6033 17.8984C16.7273 17.9729 16.7675 18.1336 16.693 18.2577C16.6186 18.3816 16.458 18.4222 16.3337 18.3475L14.0445 16.974C13.9389 16.9107 13.8151 16.892 13.6951 16.922C13.5757 16.9519 13.4747 17.0266 13.4112 17.1324C13.3477 17.2384 13.3292 17.3627 13.3587 17.4819C13.3886 17.6013 13.4635 17.702 13.5696 17.7658L18.2103 20.5497C18.9634 21.0015 19.8319 21.1579 20.6548 20.99C21.4692 20.8237 22.1419 20.3584 22.5489 19.6799C23.2067 18.584 23.1121 17.3397 22.2962 16.3513L22.2959 16.3513Z" fill="#103E13"/>
</svg>
