<svg width="35" height="20" viewBox="0 0 35 20" fill="none" xmlns="http://www.w3.org/2000/svg">
<path d="M17.5098 0.393555C15.024 0.393555 13.0003 2.43574 13.0003 4.93217C13.0003 6.51143 13.8113 7.90586 15.0359 8.71865C13.5568 9.2132 12.277 10.1375 11.3383 11.3467C10.8194 10.9475 10.2395 10.6265 9.61438 10.3964C10.5623 9.69266 11.1818 8.56217 11.1818 7.29159C11.1818 5.17432 9.46941 3.44108 7.36498 3.44108C5.26054 3.44108 3.54816 5.17432 3.54816 7.29159C3.54816 8.5629 4.16814 9.69391 5.11689 10.3977C2.60507 11.3246 0.811157 13.7513 0.811157 16.6073V18.6135C0.811414 18.7664 0.87259 18.9129 0.98106 19.0206C1.08953 19.1286 1.2363 19.1887 1.38924 19.1882H10.191C10.2123 19.1905 10.2337 19.1918 10.255 19.1916H24.7652C24.7865 19.1918 24.8081 19.1905 24.8292 19.1882H33.6316C33.948 19.1869 34.2043 18.9301 34.2051 18.6135V16.6073C34.2051 13.7513 32.4142 11.3246 29.9037 10.3974C30.8525 9.69391 31.4725 8.56263 31.4725 7.29133C31.4725 5.17406 29.7601 3.44081 27.6557 3.44081C25.5513 3.44081 23.8388 5.17406 23.8388 7.29133C23.8388 8.56191 24.4586 9.6926 25.4065 10.3962C24.7801 10.6267 24.2 10.9488 23.6803 11.349C22.742 10.1391 21.464 9.21349 19.985 8.71865C21.2093 7.90586 22.0206 6.51143 22.0206 4.93217C22.0206 2.43574 19.9958 0.393555 17.51 0.393555H17.5098ZM17.5098 1.5451C19.369 1.5451 20.8678 3.05396 20.8678 4.93217C20.8678 6.7957 19.3924 8.28988 17.5538 8.31383C17.5392 8.31383 17.5248 8.31178 17.5099 8.31178C17.4949 8.31178 17.4808 8.31383 17.4659 8.31383C15.6273 8.29018 14.1529 6.79576 14.1529 4.93217C14.1529 3.05369 15.6504 1.5451 17.5096 1.5451H17.5098ZM7.36504 4.59256C8.84021 4.59256 10.0303 5.78984 10.0303 7.29152C10.0303 8.78314 8.85561 9.97529 7.39433 9.99148C7.38456 9.99148 7.37505 9.99045 7.36502 9.99045C7.35526 9.99045 7.34575 9.99148 7.33572 9.99148C5.87444 9.97528 4.69973 8.78288 4.69973 7.29152C4.69973 5.7899 5.88984 4.59256 7.365 4.59256H7.36504ZM27.6553 4.59256C29.1305 4.59256 30.3206 5.78984 30.3206 7.29152C30.3206 8.78314 29.1459 9.97529 27.6846 9.99148C27.6748 9.99148 27.6653 9.99045 27.6553 9.99045C27.6455 9.99045 27.636 9.99148 27.626 9.99148C26.1647 9.97528 24.99 8.78288 24.99 7.29152C24.99 5.7899 26.1801 4.59256 27.6553 4.59256H27.6553ZM17.4658 9.46532C17.4804 9.46557 17.4948 9.46737 17.5097 9.46737C17.5244 9.46737 17.5388 9.46532 17.5537 9.46532C21.2409 9.48896 24.1919 12.4653 24.1919 16.191L24.1916 18.0397H10.8284V16.191C10.8284 12.4649 13.7784 9.48901 17.4652 9.46532H17.4658ZM7.32096 11.1443C7.33561 11.1446 7.35 11.1464 7.36491 11.1464C7.37982 11.1464 7.39396 11.1443 7.40886 11.1443C8.65602 11.1544 9.79421 11.5844 10.7005 12.3038C10.052 13.4513 9.67695 14.7758 9.67695 16.1913V18.0356H1.96224V16.6072C1.96224 13.5792 4.34298 11.168 7.32082 11.1441L7.32096 11.1443ZM27.6112 11.1443C27.6261 11.1446 27.6403 11.1464 27.6552 11.1464C27.6701 11.1464 27.6842 11.1443 27.6991 11.1443C30.677 11.168 33.0577 13.5796 33.0577 16.6075V18.0356H25.3391L25.3388 16.1913C25.3388 14.7766 24.9648 13.4531 24.3175 12.3059C25.2241 11.5854 26.3631 11.1543 27.6113 11.1443H27.6112Z" fill="#103E13"/>
</svg>
